<?xml version="1.0" standalone="no"?>
<!DOCTYPE svg PUBLIC "-//W3C//DTD SVG 20010904//EN"
 "http://www.w3.org/TR/2001/REC-SVG-20010904/DTD/svg10.dtd">
<svg version="1.0" xmlns="http://www.w3.org/2000/svg"
 width="500.000000pt" height="500.000000pt" viewBox="0 0 500.000000 500.000000"
 preserveAspectRatio="xMidYMid meet">

<g transform="translate(0.000000,500.000000) scale(0.100000,-0.100000)"
fill="#000000" stroke="none">
<path d="M1371 3818 c0 -590 3 -806 11 -788 43 100 136 286 184 368 187 320
493 702 835 1045 l188 187 -610 0 -609 0 1 -812z"/>
<path d="M2554 4547 c-212 -221 -352 -384 -495 -577 -299 -403 -484 -768 -533
-1055 -37 -213 -1 -417 89 -507 54 -55 108 -72 220 -72 111 0 172 14 322 74
51 20 90 33 87 28 -3 -4 -35 -28 -72 -52 -201 -131 -394 -205 -558 -213 -115
-6 -158 4 -210 49 l-34 30 0 -511 0 -511 481 0 481 0 108 113 c362 378 651
771 831 1129 167 332 214 620 141 858 -24 78 -97 152 -171 174 -107 31 -258
12 -419 -55 -53 -22 -104 -43 -112 -46 -28 -10 94 75 168 118 88 50 235 114
311 135 31 9 101 18 157 21 105 6 162 -5 197 -35 16 -14 17 10 17 486 l0 502
-463 0 -463 0 -80 -83z"/>
<path d="M3512 2683 c-86 -183 -231 -421 -365 -598 -206 -272 -489 -588 -714
-798 l-62 -57 595 0 594 0 0 770 c0 424 -2 770 -4 770 -2 0 -22 -39 -44 -87z"/>
<path d="M172 1024 c-46 -32 -52 -61 -52 -254 0 -193 6 -222 52 -254 13 -10
44 -16 74 -16 89 0 134 61 134 179 l0 41 -55 0 -54 0 -3 -62 c-2 -48 -7 -64
-19 -66 -24 -4 -29 26 -29 189 0 113 3 149 15 165 22 29 35 2 35 -73 l0 -63
55 0 55 0 0 53 c0 71 -15 119 -46 151 -23 22 -36 26 -83 26 -35 0 -65 -6 -79
-16z"/>
<path d="M619 1017 c-41 -34 -49 -76 -49 -248 0 -225 22 -269 134 -269 58 0
103 37 116 95 12 52 12 298 0 350 -14 61 -58 95 -123 95 -39 0 -58 -6 -78 -23z
m95 -73 c3 -9 6 -89 6 -179 0 -124 -3 -165 -13 -174 -8 -6 -17 -8 -20 -4 -9 8
-9 358 0 366 11 11 20 8 27 -9z"/>
<path d="M1030 775 l0 -265 45 0 44 0 3 108 3 107 23 -92 c12 -50 22 -99 22
-107 0 -12 11 -16 50 -16 l50 0 0 265 0 265 -45 0 -44 0 -3 -112 -3 -113 -29
113 -28 112 -44 0 -44 0 0 -265z"/>
<path d="M1477 1034 c-4 -4 -7 -124 -7 -266 l0 -258 45 0 45 0 0 112 c0 64 4
108 9 103 5 -6 19 -56 31 -112 l23 -103 49 0 48 0 0 265 0 265 -45 0 -44 0 -3
-117 -3 -118 -30 115 -30 115 -40 3 c-23 2 -44 0 -48 -4z"/>
<path d="M1920 775 l0 -265 95 0 95 0 0 50 0 50 -40 0 -40 0 0 60 0 60 35 0
35 0 0 50 0 50 -35 0 -35 0 0 50 0 50 35 0 c38 0 50 20 43 76 l-3 29 -92 3
-93 3 0 -266z"/>
<path d="M2351 1024 c-43 -31 -51 -70 -51 -254 0 -232 18 -270 126 -270 88 0
134 56 134 165 l0 55 -55 0 -55 0 0 -64 c0 -48 -4 -65 -15 -70 -9 -3 -18 0
-21 7 -2 7 -3 91 -2 187 3 148 5 175 18 175 12 0 16 -16 18 -72 l3 -73 54 0
55 0 0 65 c0 119 -37 165 -132 165 -33 0 -62 -6 -77 -16z"/>
<path d="M2740 985 c0 -54 0 -55 30 -55 l30 0 0 -210 0 -210 55 0 55 0 0 210
0 210 35 0 35 0 0 55 0 55 -120 0 -120 0 0 -55z"/>
<path d="M3435 1017 c-21 -18 -27 -34 -32 -82 -8 -96 7 -132 82 -199 59 -52
65 -61 65 -95 0 -43 -19 -68 -38 -49 -7 7 -12 31 -12 55 l0 43 -51 0 -52 0 7
-62 c11 -98 41 -128 126 -128 88 0 120 40 120 150 0 88 -12 113 -90 180 -56
49 -61 56 -58 89 4 50 32 49 36 -1 l3 -38 50 0 49 0 0 51 c0 43 -5 55 -29 80
-26 26 -36 29 -90 29 -48 0 -65 -5 -86 -23z"/>
<path d="M3882 1011 c-38 -38 -42 -63 -42 -247 0 -220 23 -264 136 -264 39 0
51 5 79 33 31 31 33 39 40 122 4 50 5 139 2 198 -9 154 -33 187 -137 187 -40
0 -53 -5 -78 -29z m106 -231 c2 -167 -4 -210 -29 -194 -10 6 -12 357 -2 368
22 22 28 -11 31 -174z"/>
<path d="M4297 1033 c-4 -3 -7 -123 -7 -265 l0 -258 55 0 54 0 3 108 3 107 33
3 c31 3 32 4 32 53 l0 49 -35 0 -35 0 0 50 0 50 40 0 40 0 0 55 0 55 -88 0
c-49 0 -92 -3 -95 -7z"/>
<path d="M4647 1033 c-2 -4 -4 -28 -3 -53 1 -43 2 -45 34 -48 l32 -3 0 -210 0
-209 55 0 55 0 0 210 0 210 36 0 35 0 -3 53 -3 52 -117 3 c-64 1 -118 -1 -121
-5z"/>
<path d="M2991 381 c-9 -6 -6 -8 13 -8 14 0 23 3 20 8 -7 11 -15 11 -33 0z"/>
<path d="M3921 371 c-7 -11 -7 -35 -2 -62 8 -38 9 -39 10 -13 1 17 4 34 8 37
10 11 13 57 3 57 -5 0 -14 -8 -19 -19z"/>
<path d="M1178 363 c-5 -29 4 -93 13 -93 5 0 9 16 9 35 0 19 5 35 10 35 6 0 5
8 -2 20 -16 25 -25 25 -30 3z"/>
<path d="M1830 364 c0 -11 -5 -14 -16 -10 -21 8 -50 -9 -57 -34 -7 -26 28 -64
50 -56 8 3 21 6 29 6 10 0 14 14 14 55 0 30 -4 55 -10 55 -5 0 -10 -7 -10 -16z
m-2 -52 c4 -28 -24 -40 -45 -19 -14 13 -14 19 -3 32 18 22 44 15 48 -13z"/>
<path d="M4278 363 c-5 -27 3 -93 12 -93 9 0 17 66 12 93 -2 9 -7 17 -12 17
-5 0 -10 -8 -12 -17z"/>
<path d="M143 347 c-27 -12 -30 -48 -7 -71 19 -20 38 -20 54 -2 10 13 7 15
-17 13 -24 -2 -28 2 -28 23 0 21 4 25 28 23 31 -2 34 3 10 15 -11 6 -27 6 -40
-1z"/>
<path d="M351 343 c-26 -18 -27 -45 -2 -67 36 -33 82 4 66 53 -8 25 -39 32
-64 14z m44 -33 c0 -16 -6 -26 -18 -28 -19 -4 -32 20 -23 44 9 25 41 13 41
-16z"/>
<path d="M568 353 c-14 -4 -18 -14 -17 -46 l2 -42 6 35 c9 50 41 55 41 6 0
-20 5 -36 10 -36 6 0 10 16 10 35 0 36 -20 55 -52 48z"/>
<path d="M771 344 c-11 -8 -21 -23 -21 -33 0 -27 35 -54 59 -46 29 9 26 27 -3
19 -13 -3 -27 -1 -30 5 -5 7 5 11 28 11 28 0 36 4 36 18 0 28 -43 44 -69 26z
m44 -14 c4 -6 -5 -10 -20 -10 -15 0 -24 4 -20 10 3 6 12 10 20 10 8 0 17 -4
20 -10z"/>
<path d="M982 344 c-27 -19 -28 -38 -2 -64 24 -24 30 -25 56 -4 18 15 18 15
-7 10 -31 -7 -55 15 -45 40 5 12 14 15 39 10 30 -5 31 -5 13 9 -25 19 -26 19
-54 -1z"/>
<path d="M1349 339 c-23 -23 -24 -31 -1 -57 12 -16 24 -19 45 -15 24 5 27 10
27 43 0 33 -3 38 -26 43 -18 3 -33 -2 -45 -14z m51 -14 c10 -12 10 -18 0 -30
-25 -30 -61 -7 -46 30 3 8 12 15 19 15 8 0 20 -7 27 -15z"/>
<path d="M1573 352 c-19 -3 -23 -10 -23 -43 0 -47 17 -52 22 -6 2 20 8 32 18
32 10 0 16 -12 18 -32 4 -44 22 -42 22 2 0 38 -19 54 -57 47z"/>
<path d="M1991 344 c-26 -19 -27 -46 -1 -69 29 -26 70 -7 70 33 0 38 -38 58
-69 36z m44 -34 c0 -16 -6 -26 -18 -28 -19 -4 -32 20 -23 44 9 25 41 13 41
-16z"/>
<path d="M2563 347 c-27 -12 -30 -48 -7 -71 19 -20 24 -20 52 0 44 31 4 94
-45 71z m42 -37 c0 -29 -32 -41 -41 -16 -9 24 4 48 23 44 12 -2 18 -12 18 -28z"/>
<path d="M2772 344 c-27 -18 -28 -45 -4 -67 23 -21 33 -21 58 -2 18 14 17 15
-16 12 -31 -2 -35 1 -35 23 0 22 4 25 35 23 33 -3 34 -2 16 12 -25 19 -26 19
-54 -1z"/>
<path d="M2982 344 c-29 -20 -28 -50 2 -69 19 -13 29 -14 45 -5 28 14 27 24
-2 17 -12 -4 -29 -2 -37 3 -11 7 -5 10 23 10 30 0 37 4 37 20 0 10 -9 24 -19
30 -25 13 -22 13 -49 -6z m43 -14 c4 -6 -5 -10 -20 -10 -15 0 -24 4 -20 10 3
6 12 10 20 10 8 0 17 -4 20 -10z"/>
<path d="M3358 352 c-20 -4 -32 -34 -23 -61 7 -24 24 -30 58 -24 24 5 27 10
27 43 0 31 -4 38 -22 42 -13 2 -31 2 -40 0z m37 -42 c0 -16 -6 -26 -18 -28
-19 -4 -32 20 -23 44 9 25 41 13 41 -16z"/>
<path d="M3573 347 c-33 -15 -32 -64 2 -79 21 -9 28 -8 45 7 40 36 1 95 -47
72z m42 -37 c0 -16 -6 -26 -18 -28 -19 -4 -32 20 -23 44 9 25 41 13 41 -16z"/>
<path d="M4822 353 c-18 -7 -33 -39 -26 -58 10 -25 41 -37 64 -25 27 14 27 65
1 80 -11 5 -21 10 -23 9 -2 0 -9 -3 -16 -6z m38 -29 c11 -12 11 -18 -2 -30
-18 -18 -48 -8 -48 15 0 33 28 42 50 15z"/>
<path d="M2340 345 c0 -16 30 -75 39 -75 11 0 36 69 27 77 -3 3 -11 -7 -17
-23 l-12 -29 -10 28 c-9 23 -27 38 -27 22z"/>
<path d="M4070 316 c0 -41 19 -59 54 -50 22 5 26 12 26 45 0 47 -17 52 -22 7
-2 -21 -8 -33 -18 -33 -10 0 -16 12 -18 33 -4 42 -22 41 -22 -2z"/>
<path d="M4430 321 c0 -34 26 -65 47 -57 8 3 19 6 24 6 5 0 9 18 9 40 0 48
-17 54 -22 8 -2 -21 -8 -33 -18 -33 -10 0 -16 12 -18 33 -4 40 -22 43 -22 3z"/>
<path d="M4640 310 c0 -22 5 -40 10 -40 6 0 10 13 10 28 0 15 5 33 12 40 9 9
7 12 -10 12 -19 0 -22 -5 -22 -40z"/>
</g>
</svg>
